<?xml version="1.0" encoding="UTF-8"?>
<svg id="Layer_1" data-name="Layer 1" xmlns="http://www.w3.org/2000/svg" viewBox="0 0 299.06 264.76">
  <defs>
    <style>
      .cls-1 {
        fill: #5a6eff;
      }

      .cls-1, .cls-2, .cls-3, .cls-4, .cls-5, .cls-6 {
        stroke-width: 0px;
      }

      .cls-2 {
        fill: #1a1a1a;
      }

      .cls-3 {
        fill: #ccc;
      }

      .cls-4 {
        fill: #5a96ff;
      }

      .cls-5 {
        fill: #42210b;
      }

      .cls-6 {
        fill: #c69c6d;
      }
    </style>
  </defs>
  <polygon class="cls-1" points="178.06 264.62 299.06 99.62 284.06 101.62 263.48 95.62 244.06 88.62 226.06 81.62 209.06 76.62 199.06 67.62 193.06 56.62 186.06 44.62 178.06 36.3 166.06 30.62 161.01 30.62 155.06 34.62 3.56 152.63 1.06 157.62 1.06 167.64 8.06 178.62 15.06 184.62 25.06 190.59 31.06 190.62 42.06 181.62 54.06 195.62 65.28 209.01 99.06 227.62 142.06 249.62 178.06 264.62"/>
  <path class="cls-4" d="m177.76,264.76l121-165c-3.4,1.1-8.65,2.37-15,2-4.01-.23-6.52-1.01-20.58-6-10.41-3.7-15.62-5.54-19.42-7-13.73-5.26-12.61-5.47-18-7-9.11-2.59-11.53-1.77-17-5-5.24-3.1-8.59-7.14-10-9-1.78-2.35-1.62-2.77-6-11-3.28-6.17-4.97-9.3-7-12-1.57-2.09-3.97-5.22-8-8.32-5.74-4.41-10.46-5.41-12-5.68-2.61-.46-4.08-.24-5.04,0-3.16.8-5.12,2.95-5.96,4L3.27,152.78l-2.51,4.99v10.02l7,10.98,7,6,10,5.97c3.43-1.37,6.86-2.74,10.3-4.11-2-6.33-4-12.67-6-19,12.06,21.73,25.79,34.22,35.92,41.53,3.55,2.56,13.68,7.95,33.78,18.61,20.82,11.05,31.47,16.68,43,22,9.83,4.53,21.91,9.74,36,15Z"/>
  <path class="cls-3" d="m1.06,157.62c-1.17,1.52-1.12,3.26-1,6,.06,1.43.28,3.52,1,6,1.41,2.96,2.86,5.31,4,7,1.81,2.68,2.95,4.34,5,6,.66.53.83.6,5,3,2.33,1.34,4.69,2.63,7,4,3.9,2.31,5.06,3.18,7,3,1.46-.13,2.64-.8,3-1,.57-.33,1.99-1.23,3-3,.19-.32.78-1.41,1-3,.21-1.46,0-2.65-1-6-.98-3.26-1.47-4.88-2-6-.9-1.89-1.94-3.28-4-6-2.52-3.34-3.79-5-5-6-2.01-1.65-4.01-2.43-8-4-.85-.33-3.48-1.34-7-2-2.38-.45-3.67-.45-5,0-.55.19-1.98.67-3,2Z"/>
  <path class="cls-2" d="m15.06,172.62c.22.22.92.86,2,1,.34.04,1.76-.32,2.11-1,.3-.58.17-1.15,0-1.9-.18-.78-.37-1.61-1.11-2.1-.54-.36-1.12-.37-1.45-.37-.24,0-.87.01-1.55.37-.37.2-.81.43-1,.91-.15.36-.08.69,0,1.09.09.43.26,1.26,1,2Z"/>
  <path class="cls-6" d="m153.75,57.56c-3.68-1.32-7.39-2.73-11.12-4.25-31.74-12.92-57.83-30.4-78.96-48.52l-3.61,1.31L9.31,92.25l.1,3.79,84.18,45.34,8.92,6.97c2.09-2.32,5.09-5.34,9.07-8.41,3.1-2.39,7.58-5.79,14.2-8.36,3.13-1.21,9.65-3.67,18.36-3.35,8.67.32,14.93,3.24,18.64,5,5.83,2.78,7.96,5.01,17.3,12.42,10.89,8.63,16.55,13.13,24.41,17.93,10.49,6.42,18.65,9.58,22.51,10.96,8.33,2.99,14.26,3.99,16.25,4.3,5.21.82,9.71,1,13.12.97l5.32-1.94c-.94-1.68-2.31-4.04-4.04-6.83-1.99-3.19-4.34-6.97-6.92-10.25-3.97-5.04-7.87-8.1-11.69-11.07-3.37-2.61-8.96-6.6-18.92-11.63-2.63-1.33-6.22-3.06-30.15-12.65-10.81-4.33-13.5-5.36-17.69-8.25-8.25-5.7-12.72-12.05-14.05-14.04-5-7.46-6.68-14.24-7.08-15.94-.47-2-1.92-8.82-.67-17.63.71-5.06,2.09-9.16,3.28-12.05Z"/>
  <path class="cls-5" d="m109.06,32.62c-16,30.33-32,60.67-48,91-17.67-9.33-35.33-18.67-53-28,5.27-14.79,12.03-31.19,20.76-48.55C37.87,29.08,47.35,13.39,56.39,0c17.56,10.87,35.12,21.75,52.67,32.62Z"/>
  <polygon class="cls-3" points="130.02 65.83 86.42 141.31 57.84 124.59 109.51 31.08 138.27 48.71 130.02 65.83"/>
</svg>